<?xml version="1.0" standalone="no"?>
<!DOCTYPE svg PUBLIC "-//W3C//DTD SVG 20010904//EN"
 "http://www.w3.org/TR/2001/REC-SVG-20010904/DTD/svg10.dtd">
<svg version="1.0" xmlns="http://www.w3.org/2000/svg"
 width="300.000000pt" height="300.000000pt" viewBox="0 0 300.000000 300.000000"
 preserveAspectRatio="xMidYMid meet">
<metadata>
Created by potrace 1.10, written by Peter Selinger 2001-2011
</metadata>
<g transform="translate(0.000000,300.000000) scale(0.100000,-0.100000)"
fill="#000000" stroke="none">
<path d="M1600 2721 c0 -28 -27 -87 -61 -134 -17 -23 -97 -112 -178 -197 -218
-229 -278 -302 -394 -484 -59 -93 -173 -314 -165 -321 2 -3 14 4 26 15 38 36
112 71 177 85 114 24 337 -5 471 -61 133 -56 317 -208 363 -300 46 -91 9 -194
-70 -194 -32 0 -96 29 -144 66 -99 75 -251 79 -334 7 -63 -54 -94 -122 -93
-208 1 -116 48 -215 154 -323 65 -66 121 -96 221 -116 96 -20 135 -20 233 0
162 32 295 122 369 249 93 160 128 306 107 452 -25 180 -89 282 -308 490 -170
162 -242 250 -309 376 -82 154 -104 291 -72 447 26 124 31 170 18 170 -6 0
-11 -8 -11 -19z m-60 -294 c0 -120 41 -246 127 -390 37 -64 95 -129 265 -303
201 -206 219 -227 256 -305 47 -99 52 -124 53 -260 1 -114 -14 -177 -74 -299
-88 -181 -293 -296 -507 -284 -36 2 -78 3 -94 3 -24 0 -27 3 -17 15 11 13 7
14 -25 9 -27 -4 -35 -3 -30 5 7 11 -11 17 -41 13 -6 -1 -14 8 -18 19 -3 11
-10 20 -15 20 -14 0 -80 63 -80 76 0 7 -7 15 -16 18 -10 4 -14 12 -10 22 5 12
2 15 -10 10 -13 -5 -16 -1 -12 23 3 22 1 28 -10 23 -12 -4 -14 1 -10 21 4 22
3 25 -8 16 -11 -9 -14 -6 -14 19 0 17 -4 33 -8 36 -13 8 -6 120 9 147 7 13 13
28 14 32 0 4 17 25 38 46 47 47 114 70 161 54 17 -6 48 -14 68 -17 21 -4 43
-12 51 -19 21 -19 48 -36 105 -63 41 -20 63 -25 90 -20 72 11 122 74 122 152
0 48 -44 140 -84 178 -15 13 -26 26 -26 30 0 7 -38 46 -45 46 -2 0 -18 13 -34
29 -16 16 -43 35 -60 42 -17 8 -31 17 -31 21 0 5 -6 8 -13 8 -7 0 -30 12 -51
26 -48 33 -185 80 -272 94 -105 17 -262 15 -313 -4 -24 -9 -47 -16 -52 -16
-15 0 -10 28 13 67 12 21 33 58 47 83 62 108 165 247 280 375 78 88 264 275
273 275 4 0 8 -33 8 -73z"/>
<path d="M1045 1598 c-118 -22 -233 -107 -286 -210 -54 -105 -63 -281 -21
-413 82 -261 328 -511 557 -568 101 -26 179 -31 194 -14 14 18 18 15 -88 68
-132 66 -223 164 -283 304 -39 92 -51 162 -46 262 5 115 43 198 121 269 80 73
124 89 237 89 118 0 166 -21 258 -112 35 -35 67 -61 73 -58 18 12 8 62 -22
110 -105 165 -306 266 -559 278 -47 2 -107 0 -135 -5z m275 -53 c93 -21 138
-37 195 -67 58 -30 123 -83 114 -92 -3 -3 -28 3 -55 15 -112 50 -253 35 -360
-39 -229 -157 -247 -487 -42 -763 32 -44 61 -79 65 -79 5 -1 26 -17 48 -37
l40 -36 -35 7 c-60 11 -162 67 -240 132 -105 87 -162 160 -231 297 -55 109
-72 189 -66 310 4 84 10 108 36 162 33 67 132 168 174 178 12 3 44 12 72 19
61 17 196 14 285 -7z"/>
</g>
</svg>
